<svg width="40" height="40" viewBox="0 0 40 40" fill="none" xmlns="http://www.w3.org/2000/svg">
<path d="M21.6667 13.3333C22.9927 13.3333 24.2645 13.8601 25.2022 14.7978C26.1399 15.7355 26.6667 17.0073 26.6667 18.3333C26.6667 18.7754 26.8423 19.1993 27.1548 19.5118C27.4674 19.8244 27.8913 20 28.3333 20C28.7754 20 29.1993 19.8244 29.5118 19.5118C29.8244 19.1993 30 18.7754 30 18.3333C30 16.1232 29.122 14.0036 27.5592 12.4408C25.9964 10.878 23.8768 10 21.6667 10C21.2246 10 20.8007 10.1756 20.4882 10.4882C20.1756 10.8007 20 11.2246 20 11.6667C20 12.1087 20.1756 12.5326 20.4882 12.8452C20.8007 13.1577 21.2246 13.3333 21.6667 13.3333Z" fill="#684C45"/>
<path d="M29.9162 10.0838C27.7282 7.89587 24.7608 6.66671 21.6666 6.66671C21.2246 6.66671 20.8006 6.49111 20.4881 6.17855C20.1755 5.86599 19.9999 5.44207 19.9999 5.00004C19.9999 4.55801 20.1755 4.13409 20.4881 3.82153C20.8006 3.50897 21.2246 3.33337 21.6666 3.33337C25.6448 3.33337 29.4601 4.91373 32.2732 7.72677C35.0862 10.5398 36.6666 14.3551 36.6666 18.3334C36.6666 18.7754 36.491 19.1993 36.1784 19.5119C35.8659 19.8244 35.4419 20 34.9999 20C34.5579 20 34.134 19.8244 33.8214 19.5119C33.5088 19.1993 33.3332 18.7754 33.3332 18.3334C33.3332 15.2392 32.1041 12.2717 29.9162 10.0838Z" fill="#684C45"/>
<path d="M35.7901 25.8198C36 26.0093 36.1582 26.2492 36.2499 26.5167C36.3906 26.9123 36.4965 27.3194 36.5666 27.7334C36.6337 28.1523 36.6671 28.5758 36.6666 29C36.6666 30.0068 36.4683 31.0038 36.083 31.9339C35.6977 32.8641 35.133 33.7093 34.4211 34.4212C33.7092 35.1331 32.864 35.6978 31.9338 36.0831C31.0037 36.4684 30.0067 36.6667 28.9999 36.6667C22.1954 36.6579 15.6721 33.9509 10.8606 29.1394C6.04906 24.3278 3.34207 17.8046 3.33325 11C3.33325 8.96671 4.14099 7.01667 5.57877 5.57889C7.01655 4.14111 8.96659 3.33337 10.9999 3.33337C11.4321 3.34654 11.862 3.40237 12.2833 3.50004C12.6921 3.56054 13.094 3.66102 13.4833 3.80004C13.7508 3.89171 13.9906 4.04996 14.1802 4.25989C14.3697 4.46983 14.5027 4.72453 14.5666 5.00004L16.8499 14.8834C16.9115 15.1548 16.9041 15.4373 16.8284 15.7052C16.7527 15.973 16.6111 16.2176 16.4166 16.4167C16.1999 16.6667 16.1832 16.6667 14.0666 17.7334C15.7082 21.3348 18.5886 24.227 22.1833 25.8834C23.2666 23.8167 23.2832 23.8 23.5166 23.5834C23.7157 23.3889 23.9603 23.2473 24.2281 23.1716C24.4959 23.0959 24.7785 23.0885 25.0499 23.15L35.0499 25.4334C35.3254 25.4973 35.5801 25.6303 35.7901 25.8198Z" fill="#684C45"/>
</svg>
