<svg width="112" height="31" viewBox="0 0 112 31" fill="none" xmlns="http://www.w3.org/2000/svg">
<path d="M0.298828 0.841797H4.25V6.72754L8.64551 0.841797H10.6211L7.38086 5.20312L11.626 11.0068H7.17578L4.90625 7.81445L4.25 8.7168V11H0.298828V0.841797ZM13.399 0.841797H17.357L17.3502 11H13.399V0.841797ZM22.1857 2.40039H19.2872V0.834961H29.0353V2.40039H26.1368V11H22.1857V2.40039ZM30.3639 5.92773C30.3639 5.44466 30.4255 4.97982 30.5485 4.5332C30.6761 4.08203 30.8607 3.66276 31.1022 3.27539C31.3438 2.88802 31.64 2.53483 31.9909 2.21582C32.3418 1.89681 32.7406 1.62337 33.1872 1.39551C33.6384 1.16764 34.1351 0.992188 34.6774 0.869141C35.2197 0.741536 35.8031 0.677734 36.4274 0.677734C36.8285 0.677734 37.2113 0.702799 37.5759 0.75293C37.945 0.80306 38.2914 0.873698 38.6149 0.964844C38.9385 1.05143 39.237 1.15397 39.5104 1.27246C39.7884 1.38639 40.0391 1.50716 40.2624 1.63477L39.6745 2.7832C39.4193 2.66016 39.1276 2.55762 38.7995 2.47559C38.4759 2.389 38.1387 2.3457 37.7878 2.3457C37.3184 2.3457 36.8832 2.43001 36.4821 2.59863C36.0811 2.76725 35.7347 3.00651 35.443 3.31641C35.1514 3.6263 34.9212 4.00228 34.7526 4.44434C34.5886 4.88184 34.5065 5.37402 34.5065 5.9209C34.5065 6.46322 34.5886 6.9554 34.7526 7.39746C34.9167 7.83496 35.1423 8.21094 35.4294 8.52539C35.721 8.83529 36.0651 9.07682 36.4616 9.25C36.8626 9.41862 37.2956 9.50293 37.7604 9.50293C38.0886 9.50293 38.4167 9.46419 38.7448 9.38672C39.0729 9.30469 39.3737 9.19759 39.6471 9.06543L40.235 10.2139C40.0117 10.346 39.7634 10.4691 39.4899 10.583C39.2165 10.6969 38.9203 10.7995 38.6012 10.8906C38.2822 10.9772 37.9404 11.0456 37.5759 11.0957C37.2113 11.1458 36.8285 11.1709 36.4274 11.1709C35.4932 11.1709 34.6501 11.0342 33.8981 10.7607C33.1507 10.4827 32.515 10.1068 31.9909 9.63281C31.4668 9.1543 31.0635 8.59831 30.7809 7.96484C30.5029 7.32682 30.3639 6.64779 30.3639 5.92773ZM42.2815 0.841797H46.2327V5.10059H49.1516V0.841797H53.1096L53.1028 11H49.1516V6.66602H46.2327V11H42.2815V0.841797ZM56.1473 0.841797H64.7332V2.40723H60.1053L60.0984 5.14844H63.6395V6.71387H60.0984V9.43457H64.7332V11H56.1473V0.841797ZM67.2103 0.841797H69.6849L76.1312 6.25586L76.138 0.841797H77.642V11H75.1673L68.7142 5.60645V11H67.2103V0.841797ZM0.298828 19.8418H3.09473L6.93652 25.1602L10.5869 19.8418H13.3076V30H9.36328V24.8115L5.57617 30.1299L1.80273 24.8115V30H0.298828V19.8418ZM19.1617 22.4053L17.9859 19.8418H22.149L27.1255 30.0068H22.6617L21.9097 28.3799H17.9039L17.1588 30.0068H15.4293L19.1617 22.4053ZM21.192 26.8145L19.9068 24.0254L18.6285 26.8145H21.192ZM29.0968 27.7441C29.5799 27.9902 30.0857 28.1748 30.6144 28.2979C31.143 28.4209 31.6352 28.4824 32.0909 28.4824C32.615 28.4824 32.9978 28.4072 33.2394 28.2568C33.4855 28.1064 33.6085 27.9014 33.6085 27.6416C33.6085 27.5596 33.5926 27.4753 33.5607 27.3887C33.5333 27.3021 33.4764 27.2178 33.3898 27.1357C33.3077 27.0492 33.1915 26.9648 33.0411 26.8828C32.8953 26.7962 32.7039 26.7119 32.4669 26.6299L31.2433 26.2129C30.3683 25.9121 29.7098 25.5065 29.2677 24.9961C28.8256 24.4811 28.6046 23.8704 28.6046 23.1641C28.6046 22.7083 28.7003 22.2708 28.8917 21.8516C29.0831 21.4277 29.3725 21.0563 29.7599 20.7373C30.1473 20.4137 30.6349 20.1562 31.2228 19.9648C31.8152 19.7734 32.5079 19.6777 33.3009 19.6777C33.6928 19.6777 34.0688 19.7005 34.4288 19.7461C34.7889 19.7917 35.1261 19.8509 35.4405 19.9238C35.7596 19.9967 36.0512 20.0811 36.3155 20.1768C36.5799 20.2679 36.8123 20.359 37.0128 20.4502L36.2745 21.7832C36.1287 21.6921 35.9737 21.6123 35.8097 21.5439C35.6502 21.4756 35.4884 21.4186 35.3243 21.373C35.1648 21.3275 35.0076 21.2933 34.8527 21.2705C34.6977 21.2477 34.5564 21.2363 34.4288 21.2363C34.2101 21.2363 34.0187 21.266 33.8546 21.3252C33.6905 21.3799 33.5515 21.4551 33.4376 21.5508C33.3282 21.6419 33.2439 21.7467 33.1847 21.8652C33.13 21.9792 33.1027 22.0931 33.1027 22.207C33.1027 22.3073 33.1254 22.4053 33.171 22.501C33.2211 22.5921 33.3032 22.6833 33.4171 22.7744C33.5356 22.861 33.6883 22.9499 33.8751 23.041C34.0665 23.1276 34.3035 23.2188 34.5861 23.3145L35.4064 23.5879C36.295 23.8841 36.9741 24.292 37.4435 24.8115C37.9129 25.3311 38.1476 25.96 38.1476 26.6982C38.1476 27.1995 38.0336 27.6621 37.8058 28.0859C37.5825 28.5098 37.2475 28.8766 36.8009 29.1865C36.3543 29.4919 35.7983 29.7311 35.1329 29.9043C34.4721 30.0729 33.7042 30.1572 32.8292 30.1572C32.4099 30.1572 32.0043 30.1344 31.6124 30.0889C31.2251 30.0479 30.8445 29.984 30.4708 29.8975C30.1017 29.8109 29.7371 29.7015 29.3771 29.5693C29.017 29.4372 28.657 29.2822 28.297 29.1045L29.0968 27.7441ZM42.2721 21.4004H39.3737V19.835H49.1218V21.4004H46.2233V30H42.2721V21.4004ZM51.0452 19.8418H59.6311V21.4072H55.0032L54.9963 24.1484H58.5373V25.7139H54.9963V28.4346H59.6311V30H51.0452V19.8418ZM62.1082 19.8418H67.9666C68.7231 19.8418 69.3839 19.9215 69.949 20.0811C70.5187 20.2406 70.9926 20.4639 71.3709 20.751C71.7537 21.0381 72.0408 21.3822 72.2322 21.7832C72.4236 22.1842 72.5193 22.6263 72.5193 23.1094C72.5193 23.7064 72.3781 24.2373 72.0955 24.7021C71.813 25.1624 71.3937 25.5293 70.8377 25.8027L72.9705 30.0068H68.5066L66.8934 26.3154H66.0594V30H62.1082V19.8418ZM66.2986 25.0781C66.6222 25.0781 66.9116 25.0326 67.1668 24.9414C67.422 24.8503 67.6385 24.7227 67.8162 24.5586C67.9939 24.39 68.1307 24.1917 68.2264 23.9639C68.3221 23.7314 68.3699 23.4785 68.3699 23.2051C68.3699 22.9316 68.3221 22.681 68.2264 22.4531C68.1307 22.2207 67.9939 22.0225 67.8162 21.8584C67.6385 21.6898 67.422 21.5599 67.1668 21.4688C66.9116 21.3776 66.6222 21.332 66.2986 21.332H66.0662L66.0594 25.0781H66.2986ZM75.4408 27.7441C75.9239 27.9902 76.4297 28.1748 76.9584 28.2979C77.487 28.4209 77.9792 28.4824 78.4349 28.4824C78.959 28.4824 79.3418 28.4072 79.5834 28.2568C79.8295 28.1064 79.9525 27.9014 79.9525 27.6416C79.9525 27.5596 79.9365 27.4753 79.9046 27.3887C79.8773 27.3021 79.8203 27.2178 79.7337 27.1357C79.6517 27.0492 79.5355 26.9648 79.3851 26.8828C79.2393 26.7962 79.0479 26.7119 78.8109 26.6299L77.5873 26.2129C76.7123 25.9121 76.0537 25.5065 75.6117 24.9961C75.1696 24.4811 74.9486 23.8704 74.9486 23.1641C74.9486 22.7083 75.0443 22.2708 75.2357 21.8516C75.4271 21.4277 75.7165 21.0563 76.1039 20.7373C76.4912 20.4137 76.9789 20.1562 77.5668 19.9648C78.1592 19.7734 78.8519 19.6777 79.6449 19.6777C80.0368 19.6777 80.4128 19.7005 80.7728 19.7461C81.1328 19.7917 81.4701 19.8509 81.7845 19.9238C82.1035 19.9967 82.3952 20.0811 82.6595 20.1768C82.9239 20.2679 83.1563 20.359 83.3568 20.4502L82.6185 21.7832C82.4727 21.6921 82.3177 21.6123 82.1537 21.5439C81.9942 21.4756 81.8324 21.4186 81.6683 21.373C81.5088 21.3275 81.3516 21.2933 81.1966 21.2705C81.0417 21.2477 80.9004 21.2363 80.7728 21.2363C80.5541 21.2363 80.3627 21.266 80.1986 21.3252C80.0345 21.3799 79.8955 21.4551 79.7816 21.5508C79.6722 21.6419 79.5879 21.7467 79.5287 21.8652C79.474 21.9792 79.4466 22.0931 79.4466 22.207C79.4466 22.3073 79.4694 22.4053 79.515 22.501C79.5651 22.5921 79.6472 22.6833 79.7611 22.7744C79.8796 22.861 80.0323 22.9499 80.2191 23.041C80.4105 23.1276 80.6475 23.2188 80.93 23.3145L81.7504 23.5879C82.639 23.8841 83.3181 24.292 83.7875 24.8115C84.2569 25.3311 84.4916 25.96 84.4916 26.6982C84.4916 27.1995 84.3776 27.6621 84.1498 28.0859C83.9265 28.5098 83.5915 28.8766 83.1449 29.1865C82.6983 29.4919 82.1423 29.7311 81.4769 29.9043C80.8161 30.0729 80.0482 30.1572 79.1732 30.1572C78.7539 30.1572 78.3483 30.1344 77.9564 30.0889C77.569 30.0479 77.1885 29.984 76.8148 29.8975C76.4457 29.8109 76.0811 29.7015 75.7211 29.5693C75.361 29.4372 75.001 29.2822 74.641 29.1045L75.4408 27.7441ZM91.1958 24.9004C91.1958 24.0755 91.3052 23.3395 91.5239 22.6924C91.7472 22.0452 92.0731 21.4984 92.5014 21.0518C92.9344 20.6051 93.4699 20.2656 94.1079 20.0332C94.7459 19.7962 95.4819 19.6777 96.3159 19.6777C97.1499 19.6777 97.8859 19.7962 98.5239 20.0332C99.1619 20.2656 99.6951 20.6051 100.124 21.0518C100.556 21.4984 100.882 22.0452 101.101 22.6924C101.324 23.3395 101.436 24.0755 101.436 24.9004C101.436 25.7253 101.324 26.4613 101.101 27.1084C100.882 27.7555 100.556 28.3024 100.124 28.749C99.6951 29.1956 99.1619 29.5374 98.5239 29.7744C97.8859 30.0068 97.1499 30.123 96.3159 30.123C95.4819 30.123 94.7459 30.0068 94.1079 29.7744C93.4699 29.5374 92.9344 29.1956 92.5014 28.749C92.0731 28.3024 91.7472 27.7555 91.5239 27.1084C91.3052 26.4613 91.1958 25.7253 91.1958 24.9004ZM96.3159 28.8584C96.4298 28.8584 96.5415 28.8402 96.6509 28.8037C96.7602 28.7627 96.8628 28.6898 96.9585 28.585C97.0542 28.4801 97.1408 28.3366 97.2182 28.1543C97.3003 27.9674 97.3686 27.7282 97.4233 27.4365C97.4826 27.1403 97.5281 26.7848 97.56 26.3701C97.5919 25.9554 97.6079 25.4655 97.6079 24.9004C97.6079 24.3353 97.5919 23.8454 97.56 23.4307C97.5281 23.016 97.4826 22.6628 97.4233 22.3711C97.3686 22.0749 97.3003 21.8356 97.2182 21.6533C97.1408 21.4665 97.0542 21.3206 96.9585 21.2158C96.8628 21.111 96.7602 21.0404 96.6509 21.0039C96.5415 20.9629 96.4298 20.9424 96.3159 20.9424C96.202 20.9424 96.0903 20.9629 95.9809 21.0039C95.8716 21.0404 95.769 21.111 95.6733 21.2158C95.5776 21.3206 95.4887 21.4665 95.4067 21.6533C95.3292 21.8356 95.2609 22.0749 95.2016 22.3711C95.1469 22.6628 95.1037 23.016 95.0718 23.4307C95.0399 23.8454 95.0239 24.3353 95.0239 24.9004C95.0239 25.4655 95.0399 25.9554 95.0718 26.3701C95.1037 26.7848 95.1469 27.1403 95.2016 27.4365C95.2609 27.7282 95.3292 27.9674 95.4067 28.1543C95.4887 28.3366 95.5776 28.4801 95.6733 28.585C95.769 28.6898 95.8716 28.7627 95.9809 28.8037C96.0903 28.8402 96.202 28.8584 96.3159 28.8584ZM108.828 22.9932L106.367 23.0752H103.694V19.8418L110.64 19.8555L111.986 19.8418V21.3936L107.003 29.9932H104.795L108.828 22.9932Z" fill="white"/>
</svg>