<svg width="82" height="28" viewBox="0 0 82 28" fill="none" xmlns="http://www.w3.org/2000/svg">
<path d="M12.5003 0.744141H15.3226V4.94824L18.4622 0.744141H19.8734L17.5589 3.85938L20.5911 8.00488H17.4124L15.7913 5.72461L15.3226 6.36914V8H12.5003V0.744141ZM21.9833 0.744141H24.8104L24.8055 8H21.9833V0.744141ZM28.3852 1.85742H26.3149V0.739258H33.2778V1.85742H31.2075V8H28.3852V1.85742ZM34.3525 4.37695C34.3525 4.0319 34.3965 3.69987 34.4844 3.38086C34.5755 3.05859 34.7074 2.75911 34.8799 2.48242C35.0524 2.20573 35.264 1.95345 35.5146 1.72559C35.7653 1.49772 36.0501 1.30241 36.3691 1.13965C36.6914 0.976888 37.0462 0.851562 37.4336 0.763672C37.821 0.672526 38.2376 0.626953 38.6836 0.626953C38.9701 0.626953 39.2435 0.644857 39.5039 0.680664C39.7676 0.716471 40.015 0.766927 40.2461 0.832031C40.4772 0.89388 40.6904 0.967122 40.8857 1.05176C41.0843 1.13314 41.2633 1.2194 41.4229 1.31055L41.0029 2.13086C40.8206 2.04297 40.6123 1.96973 40.3779 1.91113C40.1468 1.84928 39.9059 1.81836 39.6553 1.81836C39.32 1.81836 39.0091 1.87858 38.7227 1.99902C38.4362 2.11947 38.1888 2.29036 37.9805 2.51172C37.7721 2.73307 37.6077 3.00163 37.4873 3.31738C37.3701 3.62988 37.3115 3.98145 37.3115 4.37207C37.3115 4.75944 37.3701 5.111 37.4873 5.42676C37.6045 5.73926 37.7656 6.00781 37.9707 6.23242C38.179 6.45378 38.4248 6.6263 38.708 6.75C38.9945 6.87044 39.3037 6.93066 39.6357 6.93066C39.8701 6.93066 40.1045 6.90299 40.3389 6.84766C40.5732 6.78906 40.7881 6.71257 40.9834 6.61816L41.4033 7.43848C41.2438 7.53288 41.0664 7.62077 40.8711 7.70215C40.6758 7.78353 40.4642 7.85677 40.2363 7.92188C40.0085 7.98372 39.7643 8.03255 39.5039 8.06836C39.2435 8.10417 38.9701 8.12207 38.6836 8.12207C38.0163 8.12207 37.4141 8.02441 36.877 7.8291C36.3431 7.63053 35.889 7.36198 35.5146 7.02344C35.1403 6.68164 34.8522 6.28451 34.6504 5.83203C34.4518 5.3763 34.3525 4.89128 34.3525 4.37695ZM42.9908 0.744141H45.813V3.78613H47.898V0.744141H50.7252L50.7203 8H47.898V4.9043H45.813V8H42.9908V0.744141ZM53.0206 0.744141H59.1534V1.8623H55.8478L55.8429 3.82031H58.3722V4.93848H55.8429V6.88184H59.1534V8H53.0206V0.744141ZM61.0485 0.744141H62.8161L67.4206 4.61133L67.4255 0.744141H68.4997V8H66.7321L62.1227 4.14746V8H61.0485V0.744141ZM0.316875 19.7441H2.31395L5.05809 23.543L7.66551 19.7441H9.60887V27H6.79148V23.2939L4.08641 27.0928L1.39109 23.2939V27H0.316875V19.7441ZM13.9161 21.5752L13.0762 19.7441H16.0498L19.6045 27.0049H16.4161L15.8789 25.8428H13.0176L12.4854 27.0049H11.25L13.9161 21.5752ZM15.3663 24.7246L14.4483 22.7324L13.5352 24.7246H15.3663ZM21.1383 25.3887C21.4833 25.5645 21.8447 25.6963 22.2223 25.7842C22.5999 25.8721 22.9514 25.916 23.277 25.916C23.6513 25.916 23.9247 25.8623 24.0973 25.7549C24.273 25.6475 24.3609 25.501 24.3609 25.3154C24.3609 25.2568 24.3495 25.1966 24.3268 25.1348C24.3072 25.0729 24.2665 25.0127 24.2047 24.9541C24.1461 24.8923 24.0631 24.832 23.9557 24.7734C23.8515 24.7116 23.7148 24.6514 23.5455 24.5928L22.6715 24.2949C22.0465 24.0801 21.5761 23.7904 21.2604 23.4258C20.9446 23.0579 20.7867 22.6217 20.7867 22.1172C20.7867 21.7917 20.8551 21.4792 20.9918 21.1797C21.1285 20.877 21.3352 20.6117 21.6119 20.3838C21.8886 20.1527 22.2369 19.9688 22.6568 19.832C23.08 19.6953 23.5748 19.627 24.1412 19.627C24.4212 19.627 24.6897 19.6432 24.9469 19.6758C25.204 19.7083 25.4449 19.7507 25.6695 19.8027C25.8974 19.8548 26.1057 19.915 26.2945 19.9834C26.4833 20.0485 26.6493 20.1136 26.7926 20.1787L26.2652 21.1309C26.1611 21.0658 26.0504 21.0088 25.9332 20.96C25.8193 20.9111 25.7037 20.8704 25.5865 20.8379C25.4726 20.8053 25.3603 20.7809 25.2496 20.7646C25.1389 20.7484 25.038 20.7402 24.9469 20.7402C24.7906 20.7402 24.6539 20.7614 24.5367 20.8037C24.4195 20.8428 24.3202 20.8965 24.2389 20.9648C24.1607 21.0299 24.1005 21.1048 24.0582 21.1895C24.0191 21.2708 23.9996 21.3522 23.9996 21.4336C23.9996 21.5052 24.0159 21.5752 24.0484 21.6436C24.0842 21.7087 24.1428 21.7738 24.2242 21.8389C24.3089 21.9007 24.4179 21.9642 24.5514 22.0293C24.6881 22.0911 24.8574 22.1562 25.0592 22.2246L25.6451 22.4199C26.2799 22.6315 26.7649 22.9229 27.1002 23.2939C27.4355 23.665 27.6031 24.1143 27.6031 24.6416C27.6031 24.9997 27.5217 25.3301 27.359 25.6328C27.1995 25.9355 26.9602 26.1976 26.6412 26.4189C26.3222 26.637 25.9251 26.8079 25.4498 26.9316C24.9778 27.0521 24.4293 27.1123 23.8043 27.1123C23.5048 27.1123 23.2151 27.096 22.9352 27.0635C22.6585 27.0342 22.3867 26.9886 22.1197 26.9268C21.8561 26.8649 21.5956 26.7868 21.3385 26.6924C21.0813 26.598 20.8242 26.4873 20.567 26.3604L21.1383 25.3887ZM30.675 20.8574H28.6046V19.7393H35.5675V20.8574H33.4972V27H30.675V20.8574ZM37.0671 19.7441H43.1999V20.8623H39.8943L39.8894 22.8203H42.4187V23.9385H39.8894V25.8818H43.1999V27H37.0671V19.7441ZM45.095 19.7441H49.2796C49.8199 19.7441 50.2919 19.8011 50.6956 19.915C51.1025 20.029 51.441 20.1885 51.7112 20.3936C51.9846 20.5986 52.1897 20.8444 52.3264 21.1309C52.4632 21.4173 52.5315 21.7331 52.5315 22.0781C52.5315 22.5046 52.4306 22.8838 52.2288 23.2158C52.027 23.5446 51.7275 23.8066 51.3304 24.002L52.8538 27.0049H49.6653L48.513 24.3682H47.9173V27H45.095V19.7441ZM48.0882 23.4844C48.3193 23.4844 48.526 23.4518 48.7083 23.3867C48.8906 23.3216 49.0452 23.2305 49.1721 23.1133C49.2991 22.9928 49.3968 22.8512 49.4651 22.6885C49.5335 22.5225 49.5677 22.3418 49.5677 22.1465C49.5677 21.9512 49.5335 21.7721 49.4651 21.6094C49.3968 21.4434 49.2991 21.3018 49.1721 21.1846C49.0452 21.0641 48.8906 20.9714 48.7083 20.9062C48.526 20.8411 48.3193 20.8086 48.0882 20.8086H47.9221L47.9173 23.4844H48.0882ZM54.744 25.3887C55.089 25.5645 55.4504 25.6963 55.828 25.7842C56.2056 25.8721 56.5571 25.916 56.8827 25.916C57.257 25.916 57.5304 25.8623 57.703 25.7549C57.8787 25.6475 57.9666 25.501 57.9666 25.3154C57.9666 25.2568 57.9552 25.1966 57.9325 25.1348C57.9129 25.0729 57.8722 25.0127 57.8104 24.9541C57.7518 24.8923 57.6688 24.832 57.5614 24.7734C57.4572 24.7116 57.3205 24.6514 57.1512 24.5928L56.2772 24.2949C55.6522 24.0801 55.1818 23.7904 54.8661 23.4258C54.5503 23.0579 54.3924 22.6217 54.3924 22.1172C54.3924 21.7917 54.4608 21.4792 54.5975 21.1797C54.7342 20.877 54.9409 20.6117 55.2176 20.3838C55.4943 20.1527 55.8426 19.9688 56.2625 19.832C56.6857 19.6953 57.1805 19.627 57.7469 19.627C58.0269 19.627 58.2954 19.6432 58.5526 19.6758C58.8097 19.7083 59.0506 19.7507 59.2752 19.8027C59.5031 19.8548 59.7114 19.915 59.9002 19.9834C60.089 20.0485 60.2551 20.1136 60.3983 20.1787L59.8709 21.1309C59.7668 21.0658 59.6561 21.0088 59.5389 20.96C59.425 20.9111 59.3094 20.8704 59.1922 20.8379C59.0783 20.8053 58.966 20.7809 58.8553 20.7646C58.7446 20.7484 58.6437 20.7402 58.5526 20.7402C58.3963 20.7402 58.2596 20.7614 58.1424 20.8037C58.0252 20.8428 57.926 20.8965 57.8446 20.9648C57.7664 21.0299 57.7062 21.1048 57.6639 21.1895C57.6248 21.2708 57.6053 21.3522 57.6053 21.4336C57.6053 21.5052 57.6216 21.5752 57.6541 21.6436C57.6899 21.7087 57.7485 21.7738 57.8299 21.8389C57.9146 21.9007 58.0236 21.9642 58.1571 22.0293C58.2938 22.0911 58.4631 22.1562 58.6649 22.2246L59.2508 22.4199C59.8856 22.6315 60.3706 22.9229 60.7059 23.2939C61.0412 23.665 61.2088 24.1143 61.2088 24.6416C61.2088 24.9997 61.1274 25.3301 60.9647 25.6328C60.8052 25.9355 60.5659 26.1976 60.2469 26.4189C59.9279 26.637 59.5308 26.8079 59.0555 26.9316C58.5835 27.0521 58.035 27.1123 57.41 27.1123C57.1105 27.1123 56.8208 27.096 56.5409 27.0635C56.2642 27.0342 55.9924 26.9886 55.7254 26.9268C55.4618 26.8649 55.2013 26.7868 54.9442 26.6924C54.687 26.598 54.4299 26.4873 54.1727 26.3604L54.744 25.3887ZM66.249 23.3574C66.249 22.7682 66.3271 22.2425 66.4834 21.7803C66.6429 21.318 66.8756 20.9274 67.1816 20.6084C67.4908 20.2894 67.8733 20.0469 68.3291 19.8809C68.7848 19.7116 69.3105 19.627 69.9062 19.627C70.5019 19.627 71.0276 19.7116 71.4834 19.8809C71.9391 20.0469 72.3199 20.2894 72.6259 20.6084C72.9352 20.9274 73.1679 21.318 73.3242 21.7803C73.4837 22.2425 73.5634 22.7682 73.5634 23.3574C73.5634 23.9466 73.4837 24.4723 73.3242 24.9346C73.1679 25.3968 72.9352 25.7874 72.6259 26.1064C72.3199 26.4255 71.9391 26.6696 71.4834 26.8389C71.0276 27.0049 70.5019 27.0879 69.9062 27.0879C69.3105 27.0879 68.7848 27.0049 68.3291 26.8389C67.8733 26.6696 67.4908 26.4255 67.1816 26.1064C66.8756 25.7874 66.6429 25.3968 66.4834 24.9346C66.3271 24.4723 66.249 23.9466 66.249 23.3574ZM69.9062 26.1846C69.9876 26.1846 70.0673 26.1715 70.1455 26.1455C70.2236 26.1162 70.2968 26.0641 70.3652 25.9893C70.4335 25.9144 70.4954 25.8118 70.5507 25.6816C70.6093 25.5482 70.6582 25.3773 70.6972 25.1689C70.7395 24.9574 70.7721 24.7035 70.7949 24.4072C70.8177 24.111 70.8291 23.7611 70.8291 23.3574C70.8291 22.9538 70.8177 22.6038 70.7949 22.3076C70.7721 22.0114 70.7395 21.7591 70.6972 21.5508C70.6582 21.3392 70.6093 21.1683 70.5507 21.0381C70.4954 20.9046 70.4335 20.8005 70.3652 20.7256C70.2968 20.6507 70.2236 20.6003 70.1455 20.5742C70.0673 20.5449 69.9876 20.5303 69.9062 20.5303C69.8248 20.5303 69.7451 20.5449 69.6669 20.5742C69.5888 20.6003 69.5156 20.6507 69.4472 20.7256C69.3789 20.8005 69.3154 20.9046 69.2568 21.0381C69.2015 21.1683 69.1526 21.3392 69.1103 21.5508C69.0712 21.7591 69.0403 22.0114 69.0175 22.3076C68.9947 22.6038 68.9834 22.9538 68.9834 23.3574C68.9834 23.7611 68.9947 24.111 69.0175 24.4072C69.0403 24.7035 69.0712 24.9574 69.1103 25.1689C69.1526 25.3773 69.2015 25.5482 69.2568 25.6816C69.3154 25.8118 69.3789 25.9144 69.4472 25.9893C69.5156 26.0641 69.5888 26.1162 69.6669 26.1455C69.7451 26.1715 69.8248 26.1846 69.9062 26.1846ZM78.9693 21.9951L77.2114 22.0537H75.3023V19.7441L80.2632 19.7539L81.2251 19.7441V20.8525L77.6655 26.9951H76.0884L78.9693 21.9951Z" fill="#684C45"/>
</svg>
