<svg width="51" height="55" viewBox="0 0 51 55" fill="none" xmlns="http://www.w3.org/2000/svg">
<path fill-rule="evenodd" clip-rule="evenodd" d="M41.9094 31.4776H24.4418V35.1399H41.9094V31.4776ZM28.951 20.9171C28.6541 20.6459 28.4751 20.2914 28.4453 19.9157L28.3189 17.5792H38.5803C39.2124 17.5792 39.855 17.3753 39.855 16.7819V1.08481C39.8341 0.79676 39.692 0.525914 39.4562 0.325281C39.2204 0.124647 38.9081 0.00865272 38.5803 0H11.926C11.5974 0.00654076 11.2837 0.121843 11.0474 0.322904C10.8111 0.523964 10.6696 0.79602 10.6512 1.08481V16.7819C10.6512 17.3753 11.2833 17.5792 11.926 17.5792H22.1768L22.0819 19.9157C22.0267 20.2754 21.8245 20.605 21.5131 20.8429L21.4393 20.9078H19.4692C19.0957 20.9175 18.7415 21.0562 18.4833 21.2939C18.225 21.5316 18.0834 21.8492 18.0891 22.178V23.4761H32.4698V22.2151C32.4768 22.0521 32.4467 21.8894 32.3813 21.7368C32.3159 21.5841 32.2165 21.4445 32.0889 21.3262C31.9613 21.2079 31.8081 21.1131 31.6383 21.0477C31.4685 20.9822 31.2855 20.9472 31.1002 20.9449L28.951 20.9171ZM37.9376 14.6864H12.537V1.79872H37.9165L37.9376 14.6864ZM1.73829 29.9663C1.44708 29.8318 1.17776 29.6633 0.937593 29.4656C0.345963 28.9505 0.00908698 28.2509 0 27.5185C0.00521308 27.1601 0.0907209 26.8061 0.251615 26.4767C0.412509 26.1474 0.645581 25.8492 0.937593 25.5993C1.52016 25.0955 2.30171 24.8097 3.11841 24.8019H47.3667C48.1883 24.8153 48.9742 25.0999 49.5686 25.5993C49.8582 25.8494 50.0876 26.1481 50.2433 26.4779C50.3989 26.8076 50.4776 27.1615 50.4746 27.5185C50.4657 28.2373 50.141 28.9251 49.5686 29.4378C48.9748 29.938 48.1885 30.2227 47.3667 30.2352H46.861V54.8053H42.9419V30.2352H23.4305V39.7016H6.00507V55H1.73829V29.9663ZM6.00507 31.8206V33.5915H21.4604V31.8206H6.00507ZM6.00507 35.4181V37.2261H21.4604V35.4181H6.00507Z" fill="#684C45"/>
</svg>
