<svg width="50" height="62" viewBox="0 0 50 62" fill="none" xmlns="http://www.w3.org/2000/svg">
<path d="M2.00263 0H50V58.4962H0V0H2.00263ZM21.0195 25.9999C21.2625 26.0075 21.4923 26.0988 21.6594 26.2541C21.8266 26.4094 21.9178 26.6163 21.9133 26.8302V31.6515C21.909 31.8589 21.8135 32.0568 21.6468 32.2035C21.4801 32.3502 21.2552 32.4343 21.0195 32.438C20.7898 32.4304 20.5726 32.3438 20.4147 32.1966C20.2569 32.0495 20.1709 31.8538 20.1754 31.6515V26.8302C20.1665 26.7264 20.1814 26.6221 20.2193 26.5236C20.2573 26.425 20.3175 26.3342 20.3964 26.2567C20.4752 26.1791 20.5711 26.1164 20.6781 26.0723C20.7852 26.0282 20.9014 26.0036 21.0195 25.9999ZM28.9639 25.9999C29.0821 26.0036 29.1982 26.0282 29.3053 26.0723C29.4124 26.1164 29.5082 26.1791 29.5871 26.2567C29.6659 26.3342 29.7262 26.425 29.7641 26.5236C29.8021 26.6221 29.817 26.7264 29.808 26.8302V31.6515C29.8125 31.8538 29.7266 32.0495 29.5687 32.1966C29.4109 32.3438 29.1937 32.4304 28.9639 32.438C28.7342 32.4304 28.517 32.3438 28.3591 32.1966C28.2013 32.0495 28.1153 31.8538 28.1198 31.6515V26.8302C28.1131 26.7269 28.1297 26.6234 28.1685 26.5257C28.2073 26.428 28.2677 26.338 28.3461 26.2609C28.4245 26.1837 28.5194 26.121 28.6254 26.0762C28.7315 26.0314 28.8465 26.0055 28.9639 25.9999ZM39.8709 59.0934H44.8362V61.5113H39.8709V59.0934ZM5.37901 59.0934H10.3443V61.5113H5.37901V59.0934ZM27.0275 3.74342V54.5926H45.9285V3.80167L27.0275 3.74342ZM22.9725 54.5926V3.80167H4.05494V54.6508L22.9725 54.5926Z" fill="#684C45"/>
</svg>
