<svg width="101" height="38" viewBox="0 0 101 38" fill="none" xmlns="http://www.w3.org/2000/svg">
<path fill-rule="evenodd" clip-rule="evenodd" d="M4.92051 16.9976H25.3755C25.7199 17.0116 26.0447 17.14 26.2826 17.356C26.5204 17.572 26.653 17.859 26.6526 18.1574V20.35C26.653 20.6484 26.5204 20.9355 26.2826 21.1515C26.0447 21.3675 25.7199 21.4958 25.3755 21.5098H24.5799V38H19.5761V32.1651H4.92051V38H0.000412903V4.4397C-0.0111078 3.90572 0.218849 3.38896 0.641262 2.99965C1.06367 2.61035 1.64515 2.37932 2.26159 2.35578H2.7222C3.32013 2.37469 3.88549 2.59606 4.29666 2.97228C4.70783 3.34849 4.93189 3.84942 4.92051 4.3672V16.9976ZM17.3778 4.60278H31.3843V36.3872H35.8438L36.116 9.51359H64.6943L65.1549 36.3872H69.3423V4.60278H85.0027C87.0964 4.89272 86.5311 2.53698 86.5311 1.77589V1.37722C86.5366 1.19961 86.5014 1.02282 86.4273 0.857115C86.3532 0.691405 86.242 0.540078 86.0998 0.411939C85.9576 0.283801 85.7873 0.181428 85.599 0.110713C85.4107 0.0399984 85.208 0.00233568 85.0027 0H17.3149C16.9113 0.018766 16.5323 0.173287 16.2585 0.430576C15.9847 0.687865 15.8378 1.02757 15.8493 1.37722V1.77589C15.8493 2.53698 15.3887 4.72963 17.3149 4.60278H17.3778ZM64.2337 3.1712V6.34239L36.6394 6.63234V3.1712H64.2337ZM95.3454 16.9976H74.8904C74.546 17.0116 74.2211 17.14 73.9832 17.356C73.7453 17.572 73.6129 17.859 73.6133 18.1574V20.35C73.6129 20.6484 73.7453 20.9355 73.9832 21.1515C74.2211 21.3675 74.546 21.4958 74.8904 21.5098H75.686V38H80.6061V32.1651H95.2617V38H100.182V4.4397C100.187 3.89797 99.9471 3.37601 99.5124 2.98621C99.0777 2.59642 98.4835 2.37001 97.8578 2.35578H97.46C97.1622 2.36042 96.8684 2.41643 96.5959 2.52052C96.3234 2.62461 96.0775 2.77464 95.8728 2.96194C95.6681 3.14924 95.5086 3.36999 95.4037 3.61128C95.2987 3.85257 95.2505 4.10956 95.2617 4.3672L95.3454 16.9976ZM80.6898 29.8636V21.5098H95.3454V29.8636H80.6898ZM19.7436 29.8636V21.5098H5.08804V29.8636H19.7436Z" fill="#684C45"/>
</svg>
