<svg width="50" height="37" viewBox="0 0 50 37" fill="none" xmlns="http://www.w3.org/2000/svg">
<path d="M46.3261 3.94243V36.7698H4.06951V3.94243H1.73008C1.25441 3.92452 0.806057 3.74415 0.482327 3.44044C0.158597 3.13673 -0.014386 2.73421 0.000937789 2.32024V1.60254C-0.0083622 1.19193 0.167313 0.794426 0.490415 0.494981C0.813517 0.195536 1.25842 0.0178882 1.73008 0H48.2361C48.7137 0.0103152 49.1672 0.184646 49.4976 0.484915C49.8279 0.785184 50.0082 1.18699 49.9991 1.60254V2.32024C50.0066 2.52764 49.9669 2.73429 49.8822 2.92828C49.7975 3.12228 49.6696 3.29978 49.5057 3.45057C49.3418 3.60135 49.1453 3.72244 48.9274 3.80686C48.7095 3.89128 48.4745 3.93734 48.2361 3.94243H46.3261ZM23.124 20.8133H27.2603C27.5462 20.8307 27.8137 20.942 28.0088 21.1245C28.2039 21.307 28.3121 21.5472 28.3114 21.7965V22.8681C28.3144 22.9898 28.2894 23.1108 28.238 23.224C28.1865 23.3372 28.1095 23.4404 28.0116 23.5274C27.9137 23.6144 27.7969 23.6835 27.6678 23.7306C27.5388 23.7778 27.4003 23.8021 27.2603 23.8021H23.124C22.9845 23.8022 22.8465 23.7778 22.7181 23.7305C22.5897 23.6832 22.4735 23.614 22.3765 23.5268C22.2795 23.4397 22.2036 23.3365 22.1534 23.2233C22.1032 23.1101 22.0797 22.9893 22.0842 22.8681V21.7768C22.0833 21.5291 22.1899 21.2903 22.3826 21.108C22.5754 20.9257 22.8402 20.8134 23.124 20.7936V20.8133ZM23.124 6.06604H27.2603C27.5462 6.08349 27.8137 6.19473 28.0088 6.37725C28.2039 6.55977 28.3121 6.79994 28.3114 7.04919V8.11099C28.3121 8.36024 28.2039 8.60043 28.0088 8.78295C27.8137 8.96547 27.5462 9.0767 27.2603 9.09414H23.124C22.8402 9.07433 22.5754 8.96207 22.3826 8.7798C22.1899 8.59753 22.0833 8.35867 22.0842 8.11099V7.04919C22.0833 6.80151 22.1899 6.56267 22.3826 6.3804C22.5754 6.19813 22.8402 6.08585 23.124 6.06604ZM6.83839 16.4678H43.625V4.75845H6.83839V16.4678ZM43.625 19.1616H6.83839V34.1645H43.625V19.1616Z" fill="#684C45"/>
</svg>
