<svg width="50" height="63" viewBox="0 0 50 63" fill="none" xmlns="http://www.w3.org/2000/svg">
<path fill-rule="evenodd" clip-rule="evenodd" d="M2.07672 3.36229H47.7806V58.5966H45.6563V62.5448H41.3285V58.5966H8.98858V62.5448H4.6449V58.5966H2.07672V3.36229ZM47.9391 2.26015L50 0H0L2.02917 2.26015H47.9391ZM6.81675 10.4218H23.5098V51.5371H6.81675V10.4218ZM26.3951 10.4218H43.0247V51.5371H26.3951V10.4218ZM27.5999 11.6635H41.8675V50.2954H27.5999V11.6635ZM29.1852 28.7681H30.39C30.5206 28.7714 30.6452 28.8176 30.7391 28.8976C30.833 28.9777 30.8894 29.0858 30.8973 29.2006V32.7583C30.8897 32.8745 30.8338 32.9842 30.7403 33.0665C30.6467 33.1488 30.5221 33.1981 30.39 33.2047H29.1852C29.059 33.1943 28.9419 33.1427 28.8568 33.06C28.7717 32.9774 28.7249 32.8698 28.7254 32.7583V29.2006C28.7252 29.0906 28.7726 28.9846 28.858 28.9042C28.9434 28.8238 29.0604 28.7752 29.1852 28.7681Z" fill="#684C45"/>
</svg>
