<svg width="48" height="40" viewBox="0 0 48 40" fill="none" xmlns="http://www.w3.org/2000/svg">
<path d="M20.6529 0H2.71259C1.99473 0.00502287 1.3077 0.29091 0.800078 0.795838C0.29246 1.30077 0.00504963 1.98415 0 2.69821V37.3018C0.00504963 38.0159 0.29246 38.6992 0.800078 39.2042C1.3077 39.7091 1.99473 39.995 2.71259 40H20.6529C21.3718 39.9983 22.0608 39.7135 22.5691 39.2079C23.0775 38.7022 23.3638 38.0169 23.3655 37.3018V28.6573H21.4822V35H1.90266V4.30946H21.4822V5.17263H23.3655V2.71099C23.3605 1.99693 23.0731 1.31355 22.5655 0.808618C22.0578 0.303691 21.3708 0.0178036 20.6529 0.0127807V0ZM32.641 21.1445L28.9643 17.9476L18.416 26.9437C18.8189 27.3075 19.3439 27.5082 19.888 27.5064H45.3812C45.9231 27.5066 46.4456 27.306 46.8468 26.9437L36.3307 17.9284L32.641 21.1445ZM37.2563 17.0908L47.541 25.7737V8.18414L37.2563 17.0908ZM17.7411 8.18414V25.7928L28.0258 17.11L17.7411 8.18414ZM46.8468 6.90536C46.4531 6.52887 45.9273 6.32011 45.3812 6.32352H19.8944C19.3469 6.32245 18.8199 6.53076 18.4225 6.90536L32.6475 19.0537L46.8468 6.90536ZM9.12767 36.023H14.27C14.3292 36.0246 14.3854 36.0487 14.4273 36.0904C14.4691 36.132 14.4934 36.188 14.495 36.2468V39.0026C14.4934 39.0614 14.4691 39.1174 14.4273 39.159C14.3854 39.2006 14.3292 39.2247 14.27 39.2263H9.12767C9.06852 39.2247 9.01221 39.2006 8.97037 39.159C8.92852 39.1174 8.90431 39.0614 8.90269 39.0026V36.2468C8.90431 36.188 8.92852 36.132 8.97037 36.0904C9.01221 36.0487 9.06852 36.0246 9.12767 36.023Z" fill="#684C45"/>
</svg>
